<svg xmlns="http://www.w3.org/2000/svg" xmlns:xlink="http://www.w3.org/1999/xlink" width="40" zoomAndPan="magnify" viewBox="0 0 30 30.000001" height="40" preserveAspectRatio="xMidYMid meet" version="1.0"><path fill="#0e8784" d="M 24.84375 12.351562 C 27.886719 15.367188 27.359375 20.800781 23.65625 24.464844 C 21.878906 26.222656 19.640625 27.320312 17.351562 27.554688 C 17.042969 27.585938 16.742188 27.601562 16.449219 27.601562 C 14.476562 27.601562 12.71875 26.917969 11.425781 25.636719 C 9.933594 24.160156 9.242188 22.078125 9.488281 19.769531 C 9.722656 17.503906 10.832031 15.285156 12.609375 13.527344 C 16.3125 9.863281 21.800781 9.335938 24.84375 12.351562 Z M 24.652344 12.539062 C 23.640625 13.75 22.894531 15.128906 21.652344 16.140625 C 20.328125 17.21875 18.871094 17.613281 17.265625 18.070312 C 13.75 19.082031 12.011719 22.023438 11.609375 25.449219 C 12.710938 24.144531 13.515625 22.679688 14.902344 21.628906 C 16.117188 20.710938 17.429688 20.347656 18.859375 19.960938 C 22.453125 18.988281 24.234375 16.019531 24.652344 12.539062 Z M 15.75 5.703125 C 16.710938 6.660156 17.472656 7.757812 18.03125 8.988281 C 16.261719 9.292969 14.542969 10.023438 13.027344 11.125 C 12.421875 10.742188 11.777344 10.449219 11.089844 10.246094 C 9.488281 9.789062 8.03125 9.398438 6.707031 8.316406 C 5.464844 7.304688 4.71875 5.921875 3.703125 4.714844 C 4.121094 8.195312 5.90625 11.164062 9.5 12.140625 C 10.105469 12.304688 10.6875 12.472656 11.253906 12.671875 C 9.542969 14.460938 8.414062 16.636719 8.019531 18.898438 C 6.773438 18.347656 5.667969 17.59375 4.699219 16.640625 C 1.003906 12.976562 0.46875 7.542969 3.515625 4.53125 C 6.558594 1.515625 12.046875 2.039062 15.746094 5.703125 Z M 15.75 5.703125 " fill-opacity="1" fill-rule="nonzero"/></svg>